<svg width="72" height="95" viewBox="0 0 72 95" fill="none" xmlns="http://www.w3.org/2000/svg">
<mask id="mask0_9_46" style="mask-type:luminance" maskUnits="userSpaceOnUse" x="0" y="0" width="27" height="81">
<path d="M0 0H26.9294V80.2956H0V0Z" fill="white"/>
</mask>
<g mask="url(#mask0_9_46)">
<path d="M0.0241699 44.6393V34.7293C1.91888 34.6204 3.35079 34.3145 4.31199 33.82C5.27319 33.3256 6.10386 32.4917 6.80399 31.3226C7.50808 30.1535 7.9867 28.6869 8.24777 26.9228C8.45345 25.6029 8.56026 23.3024 8.56026 20.0298C8.56026 14.6872 8.79363 10.9663 9.26039 8.85857C9.7311 6.75505 10.5736 5.06218 11.7959 3.77995C13.0142 2.50192 14.7942 1.48787 17.1359 0.746195C18.7181 0.251742 21.2141 0.0045166 24.6198 0.0045166H26.6846V9.87261C23.801 9.87261 21.9498 10.0444 21.131 10.388C20.3122 10.7316 19.707 11.2554 19.3194 11.9552C18.9278 12.6591 18.7339 13.8618 18.7339 15.5672C18.7339 17.302 18.6153 20.5913 18.3819 25.4395C18.2514 28.1632 17.9151 30.3714 17.3693 32.0643C16.8234 33.7572 16.1272 35.1567 15.2847 36.2546C14.4382 37.3566 13.1447 38.5006 11.4043 39.6822C12.9391 40.6209 14.193 41.7145 15.166 42.9674C16.1431 44.2203 16.8867 45.7372 17.4088 47.5306C17.927 49.3157 18.2632 51.7125 18.4214 54.7127C18.6034 59.2843 18.6944 62.2008 18.6944 63.4662C18.6944 65.2848 18.9001 66.5503 19.3194 67.2668C19.7347 67.9792 20.3636 68.5239 21.2062 68.8968C22.0526 69.2698 23.8762 69.4541 26.6846 69.4541V79.3641H24.6198C21.1112 79.3641 18.4214 79.0666 16.5505 78.4758C14.6795 77.885 13.1012 76.9003 11.8157 75.5217C10.5262 74.1472 9.66385 72.446 9.22083 70.4221C8.78177 68.4024 8.56026 65.2136 8.56026 60.8641C8.56026 55.8022 8.35061 52.5087 7.93528 50.996C7.36568 48.7961 6.49941 47.2205 5.34439 46.2693C4.18541 45.3181 2.41332 44.7776 0.0241699 44.6393Z" fill="#FBFCFF"/>
</g>
<path d="M59.1552 20.5619H53.0558V14.0962H59.1552V20.5619Z" fill="#EB6D08"/>
<path d="M57.7154 33.4854H53.0558V28.5492H57.7154V33.4854Z" fill="#EB6D08"/>
<mask id="mask1_9_46" style="mask-type:luminance" maskUnits="userSpaceOnUse" x="29" y="14" width="29" height="81">
<path d="M29.9673 14.859H57.3081V94.9355H29.9673V14.859Z" fill="white"/>
</mask>
<g mask="url(#mask1_9_46)">
<path d="M39.967 25.5747V20.6385H44.6306V25.5747H39.967ZM51.8257 48.6589C50.6549 47.7119 49.7847 46.1364 49.2151 43.9323C48.8986 42.6919 48.7127 40.3077 48.6494 36.792H44.6306V30.3306H48.5624C48.4635 27.8374 48.2578 25.8973 47.9453 24.5062C47.4905 22.4823 46.6281 20.7768 45.3545 19.3856C44.0808 17.9945 42.5104 17.0098 40.6394 16.4315C38.7685 15.8532 36.0787 15.5683 32.5701 15.5683H30.5053V25.4364C33.4403 25.4364 35.3311 25.6208 36.1736 25.9937C37.0201 26.3624 37.6055 26.8946 37.9299 27.5818C38.2542 28.269 38.4283 29.6476 38.456 31.7092C38.5865 38.2628 38.7922 42.4992 39.081 44.4267C39.52 47.2384 40.3507 49.5472 41.5729 51.3658C42.455 52.6313 43.8593 53.9261 45.7856 55.246C44.3023 56.1553 43.0879 57.2071 42.1386 58.4055C41.1893 59.6039 40.4298 61.0621 39.8602 62.7801C39.2866 64.5023 38.9346 66.7944 38.808 69.6564C38.5984 74.3914 38.4876 77.5969 38.4758 79.2772C38.4599 80.9575 38.2542 82.1476 37.8508 82.8474C37.4473 83.5513 36.8184 84.0877 35.96 84.4606C35.1017 84.8335 33.2821 85.0179 30.5053 85.0179V94.9279H32.5701C35.9719 94.9279 38.4678 94.6807 40.054 94.182C42.4194 93.4404 44.2113 92.4305 45.4336 91.1483C46.6519 89.8703 47.4905 88.169 47.9453 86.0487C48.4002 83.9284 48.6297 80.1991 48.6297 74.8607C48.6297 71.6132 48.7325 69.3253 48.9421 68.0054C49.2269 66.2455 49.7135 64.7789 50.4017 63.6098C51.09 62.4365 51.9167 61.6068 52.8779 61.1082C53.8391 60.6138 55.2671 60.3121 57.1657 60.2031V50.2931C54.7726 50.1548 52.9926 49.6101 51.8257 48.6589Z" fill="#EB6D08"/>
</g>
<mask id="mask2_9_46" style="mask-type:luminance" maskUnits="userSpaceOnUse" x="65" y="3" width="7" height="6">
<path d="M65.4091 3.0589H71.3899V8.42251H65.4091V3.0589Z" fill="white"/>
</mask>
<g mask="url(#mask2_9_46)">
<path d="M71.0537 8.00869H66.3901V3.07251H71.0537V8.00869Z" fill="#EB6D08"/>
</g>
<path d="M47.6803 14.0962H38.9781V4.88171H47.6803V14.0962Z" fill="#EB6D08"/>
</svg>
